<?xml version="1.0"?>
<svg xmlns="http://www.w3.org/2000/svg" viewBox="0 0 16 16">
    <path fill="white" style="line-height:normal;text-indent:0;text-align:start;text-decoration-line:none;text-decoration-style:solid;text-transform:none;block-progression:tb;isolation:auto;mix-blend-mode:normal" d="M 6.4960938 1 C 5.6752813 1 5 1.6752812 5 2.4960938 L 5 3 L 2 3 L 2 4 L 3 4 L 3 12.5 C 3 13.322531 3.6774686 14 4.5 14 L 10.5 14 C 11.322531 14 12 13.322531 12 12.5 L 12 4 L 13 4 L 13 3 L 10 3 L 10 2.4960938 C 10 1.6752812 9.3247187 1 8.5039062 1 L 6.4960938 1 z M 6.4960938 2 L 8.5039062 2 C 8.7850939 2 9 2.2149062 9 2.4960938 L 9 3 L 6 3 L 6 2.4960938 C 6 2.2149062 6.2149062 2 6.4960938 2 z M 4 4 L 5 4 L 6 4 L 9 4 L 10 4 L 11 4 L 11 12.5 C 11 12.781469 10.781469 13 10.5 13 L 4.5 13 C 4.2185314 13 4 12.781469 4 12.5 L 4 4 z M 5 5 L 5 12 L 6 12 L 6 5 L 5 5 z M 7 5 L 7 12 L 8 12 L 8 5 L 7 5 z M 9 5 L 9 12 L 10 12 L 10 5 L 9 5 z" font-weight="400" font-family="sans-serif" white-space="normal" overflow="visible"/>
</svg>
