<?xml version="1.0"?>
<svg xmlns="http://www.w3.org/2000/svg" viewBox="0 0 64 64">
    <path fill="white" d="M 21.65625 4 C 20.32125 4 19.065094 4.5208437 18.121094 5.4648438 L 9.4648438 14.121094 C 8.5208437 15.066094 8 16.32125 8 17.65625 L 8 57 C 8 58.654 9.346 60 11 60 L 51 60 C 52.654 60 54 58.654 54 57 L 54 7 C 54 5.346 52.654 4 51 4 L 21.65625 4 z M 22 6 L 51 6 C 51.551 6 52 6.449 52 7 L 52 57 C 52 57.551 51.551 58 51 58 L 11 58 C 10.449 58 10 57.551 10 57 L 10 18 L 19 18 C 20.654 18 22 16.654 22 15 L 22 6 z M 20 6.5019531 L 20 15 C 20 15.551 19.551 16 19 16 L 10.498047 16 C 10.607047 15.835 10.735906 15.679156 10.878906 15.535156 L 19.535156 6.8789062 C 19.678156 6.7379062 19.834 6.6119531 20 6.5019531 z M 20 24 C 17.794 24 16 25.794 16 28 C 16 30.206 17.794 32 20 32 C 22.206 32 24 30.206 24 28 C 24 25.794 22.206 24 20 24 z M 20 25.75 C 21.241 25.75 22.25 26.759 22.25 28 C 22.25 29.241 21.241 30.25 20 30.25 C 18.759 30.25 17.75 29.241 17.75 28 C 17.75 26.759 18.759 25.75 20 25.75 z M 37 30.414062 C 36.487625 30.414188 35.975437 30.61 35.585938 31 L 29 37.585938 L 26.414062 35 C 25.634062 34.219 24.364938 34.22 23.585938 35 L 14.585938 44 L 13.041016 44 C 12.416016 44 12 44.4 12 45 C 12 45.6 12.521969 46 13.042969 46 L 48.980469 46 C 49.501469 46 50.023438 45.6 50.023438 45 C 50.022437 44.4 49.500469 44 48.980469 44 L 25.414062 44 L 37 32.414062 L 45.292969 40.707031 C 45.683969 41.098031 46.316031 41.098031 46.707031 40.707031 C 47.098031 40.316031 47.098031 39.683969 46.707031 39.292969 L 38.414062 31 C 38.024062 30.6095 37.512375 30.413937 37 30.414062 z M 25 36.414062 L 27.585938 39 L 22.585938 44 L 17.414062 44 L 25 36.414062 z M 13 52 C 12.448 52 12 52.448 12 53 L 12 55 C 12 55.552 12.448 56 13 56 C 13.552 56 14 55.552 14 55 L 14 53 C 14 52.448 13.552 52 13 52 z M 18 52 C 17.448 52 17 52.448 17 53 L 17 55 C 17 55.552 17.448 56 18 56 C 18.552 56 19 55.552 19 55 L 19 53 C 19 52.448 18.552 52 18 52 z M 23 52 C 22.448 52 22 52.448 22 53 L 22 55 C 22 55.552 22.448 56 23 56 C 23.552 56 24 55.552 24 55 L 24 53 C 24 52.448 23.552 52 23 52 z M 28 52 C 27.448 52 27 52.448 27 53 L 27 55 C 27 55.552 27.448 56 28 56 C 28.552 56 29 55.552 29 55 L 29 53 C 29 52.448 28.552 52 28 52 z M 33 52 C 32.448 52 32 52.448 32 53 L 32 55 C 32 55.552 32.448 56 33 56 C 33.552 56 34 55.552 34 55 L 34 53 C 34 52.448 33.552 52 33 52 z M 38 52 C 37.448 52 37 52.448 37 53 L 37 55 C 37 55.552 37.448 56 38 56 C 38.552 56 39 55.552 39 55 L 39 53 C 39 52.448 38.552 52 38 52 z M 43 52 C 42.448 52 42 52.448 42 53 L 42 55 C 42 55.552 42.448 56 43 56 C 43.552 56 44 55.552 44 55 L 44 53 C 44 52.448 43.552 52 43 52 z M 48 52 C 47.448 52 47 52.448 47 53 L 47 55 C 47 55.552 47.448 56 48 56 C 48.552 56 49 55.552 49 55 L 49 53 C 49 52.448 48.552 52 48 52 z"/>
</svg>
